<svg viewBox="0 0 100 100" xmlns="http://www.w3.org/2000/svg">
  <!-- 最終型態 -->
  <path d="M 50 90 Q 48 55 50 35" stroke="#33691e" stroke-width="6" fill="none"/>
  <!-- 茂盛的蕨類 -->
  <path d="M 50 35 L 30 10 L 25 2" stroke="#7cb342" stroke-width="3" fill="none"/>
  <path d="M 50 35 L 70 10 L 75 2" stroke="#7cb342" stroke-width="3" fill="none"/>
  <path d="M 50 40 L 25 25 L 15 15" stroke="#8bc34a" stroke-width="3" fill="none"/>
  <path d="M 50 40 L 75 25 L 85 15" stroke="#8bc34a" stroke-width="3" fill="none"/>
  <path d="M 50 45 L 28 40 L 18 35" stroke="#9ccc65" stroke-width="2" fill="none"/>
  <path d="M 50 45 L 72 40 L 82 35" stroke="#9ccc65" stroke-width="2" fill="none"/>
  <!-- 小葉 -->
  <circle cx="30" cy="10" r="3" fill="#8bc34a"/>
  <circle cx="25" cy="2" r="3" fill="#8bc34a"/>
  <circle cx="70" cy="10" r="3" fill="#8bc34a"/>
  <circle cx="75" cy="2" r="3" fill="#8bc34a"/>
  <circle cx="25" cy="25" r="2.5" fill="#9ccc65"/>
  <circle cx="15" cy="15" r="2.5" fill="#9ccc65"/>
  <circle cx="75" cy="25" r="2.5" fill="#9ccc65"/>
  <circle cx="85" cy="15" r="2.5" fill="#9ccc65"/>
  <ellipse cx="50" cy="92" rx="20" ry="6" fill="#8d6e63" opacity="0.3"/>
</svg>