<svg viewBox="0 0 100 100" xmlns="http://www.w3.org/2000/svg">
  <!-- 最終型態 -->
  <!-- 树干 -->
  <rect x="44" y="45" width="12" height="45" fill="#6d4c41"/>
  <!-- 茂盛的树冠 -->
  <polygon points="50,15 25,40 35,40 30,55 50,55 45,48 55,48 60,55 50,55 55,55 70,40" fill="#1b5e20"/>
  <polygon points="50,30 28,50 38,50 33,65 50,65 46,55 54,55 60,65 47,65 67,50" fill="#2e7d32"/>
  <polygon points="50,42 32,60 42,60 38,70 50,70 47,62 53,62 58,70 50,70 62,60" fill="#388e3c" opacity="0.9"/>
  <!-- 土壤 -->
  <ellipse cx="50" cy="92" rx="20" ry="6" fill="#8d6e63" opacity="0.3"/>
</svg>